<mxfile host="app.diagrams.net" agent="Mozilla/5.0 (Windows NT 10.0; Win64; x64) AppleWebKit/537.36 (KHTML, like Gecko) Chrome/141.0.0.0 Safari/537.36 Edg/141.0.0.0" version="28.2.5">
  <diagram name="Página-1" id="GUaqgNRMf64fUB0X61Rg">
    <mxGraphModel dx="1418" dy="820" grid="1" gridSize="10" guides="1" tooltips="1" connect="1" arrows="1" fold="1" page="1" pageScale="1" pageWidth="827" pageHeight="1169" math="0" shadow="0">
      <root>
        <mxCell id="0" />
        <mxCell id="1" parent="0" />
        <mxCell id="5soLwOJ7RaT2KzwnRz-q-54" value="" style="edgeStyle=orthogonalEdgeStyle;rounded=0;orthogonalLoop=1;jettySize=auto;html=1;" edge="1" parent="1" source="cNQzS-MbvrIsL9m1DNLt-2" target="5soLwOJ7RaT2KzwnRz-q-52">
          <mxGeometry relative="1" as="geometry" />
        </mxCell>
        <mxCell id="cNQzS-MbvrIsL9m1DNLt-2" value="Ínicio" style="ellipse;whiteSpace=wrap;html=1;" parent="1" vertex="1">
          <mxGeometry x="550" y="10" width="120" height="80" as="geometry" />
        </mxCell>
        <mxCell id="5soLwOJ7RaT2KzwnRz-q-1" value="Fim" style="ellipse;whiteSpace=wrap;html=1;" vertex="1" parent="1">
          <mxGeometry x="354" y="620" width="120" height="80" as="geometry" />
        </mxCell>
        <mxCell id="5soLwOJ7RaT2KzwnRz-q-17" style="edgeStyle=orthogonalEdgeStyle;rounded=0;orthogonalLoop=1;jettySize=auto;html=1;entryX=0;entryY=0.5;entryDx=0;entryDy=0;" edge="1" parent="1" source="5soLwOJ7RaT2KzwnRz-q-2" target="5soLwOJ7RaT2KzwnRz-q-16">
          <mxGeometry relative="1" as="geometry" />
        </mxCell>
        <mxCell id="5soLwOJ7RaT2KzwnRz-q-42" value="8" style="edgeLabel;html=1;align=center;verticalAlign=middle;resizable=0;points=[];" vertex="1" connectable="0" parent="5soLwOJ7RaT2KzwnRz-q-17">
          <mxGeometry x="0.1895" y="-3" relative="1" as="geometry">
            <mxPoint as="offset" />
          </mxGeometry>
        </mxCell>
        <mxCell id="5soLwOJ7RaT2KzwnRz-q-18" style="edgeStyle=orthogonalEdgeStyle;rounded=0;orthogonalLoop=1;jettySize=auto;html=1;entryX=0;entryY=0.5;entryDx=0;entryDy=0;" edge="1" parent="1" source="5soLwOJ7RaT2KzwnRz-q-2" target="5soLwOJ7RaT2KzwnRz-q-14">
          <mxGeometry relative="1" as="geometry">
            <Array as="points">
              <mxPoint x="440" y="350" />
            </Array>
          </mxGeometry>
        </mxCell>
        <mxCell id="5soLwOJ7RaT2KzwnRz-q-40" value="7" style="edgeLabel;html=1;align=center;verticalAlign=middle;resizable=0;points=[];" vertex="1" connectable="0" parent="5soLwOJ7RaT2KzwnRz-q-18">
          <mxGeometry x="0.4179" y="2" relative="1" as="geometry">
            <mxPoint as="offset" />
          </mxGeometry>
        </mxCell>
        <mxCell id="5soLwOJ7RaT2KzwnRz-q-19" style="edgeStyle=orthogonalEdgeStyle;rounded=0;orthogonalLoop=1;jettySize=auto;html=1;entryX=0.5;entryY=0;entryDx=0;entryDy=0;" edge="1" parent="1" source="5soLwOJ7RaT2KzwnRz-q-2" target="5soLwOJ7RaT2KzwnRz-q-11">
          <mxGeometry relative="1" as="geometry">
            <Array as="points">
              <mxPoint x="340" y="270" />
            </Array>
          </mxGeometry>
        </mxCell>
        <mxCell id="5soLwOJ7RaT2KzwnRz-q-36" value="4" style="edgeLabel;html=1;align=center;verticalAlign=middle;resizable=0;points=[];" vertex="1" connectable="0" parent="5soLwOJ7RaT2KzwnRz-q-19">
          <mxGeometry x="0.2353" y="3" relative="1" as="geometry">
            <mxPoint as="offset" />
          </mxGeometry>
        </mxCell>
        <mxCell id="5soLwOJ7RaT2KzwnRz-q-21" style="edgeStyle=orthogonalEdgeStyle;rounded=0;orthogonalLoop=1;jettySize=auto;html=1;entryX=0.5;entryY=0;entryDx=0;entryDy=0;" edge="1" parent="1" source="5soLwOJ7RaT2KzwnRz-q-2" target="5soLwOJ7RaT2KzwnRz-q-13">
          <mxGeometry relative="1" as="geometry">
            <Array as="points">
              <mxPoint x="410" y="320" />
              <mxPoint x="660" y="320" />
            </Array>
          </mxGeometry>
        </mxCell>
        <mxCell id="5soLwOJ7RaT2KzwnRz-q-39" value="6" style="edgeLabel;html=1;align=center;verticalAlign=middle;resizable=0;points=[];" vertex="1" connectable="0" parent="5soLwOJ7RaT2KzwnRz-q-21">
          <mxGeometry x="0.7587" y="4" relative="1" as="geometry">
            <mxPoint as="offset" />
          </mxGeometry>
        </mxCell>
        <mxCell id="5soLwOJ7RaT2KzwnRz-q-22" style="edgeStyle=orthogonalEdgeStyle;rounded=0;orthogonalLoop=1;jettySize=auto;html=1;entryX=1;entryY=0.5;entryDx=0;entryDy=0;" edge="1" parent="1" source="5soLwOJ7RaT2KzwnRz-q-2" target="5soLwOJ7RaT2KzwnRz-q-8">
          <mxGeometry relative="1" as="geometry" />
        </mxCell>
        <mxCell id="5soLwOJ7RaT2KzwnRz-q-26" value="1" style="edgeLabel;html=1;align=center;verticalAlign=middle;resizable=0;points=[];" vertex="1" connectable="0" parent="5soLwOJ7RaT2KzwnRz-q-22">
          <mxGeometry x="0.12" y="3" relative="1" as="geometry">
            <mxPoint as="offset" />
          </mxGeometry>
        </mxCell>
        <mxCell id="5soLwOJ7RaT2KzwnRz-q-23" style="edgeStyle=orthogonalEdgeStyle;rounded=0;orthogonalLoop=1;jettySize=auto;html=1;entryX=0.75;entryY=0;entryDx=0;entryDy=0;" edge="1" parent="1" source="5soLwOJ7RaT2KzwnRz-q-2" target="5soLwOJ7RaT2KzwnRz-q-9">
          <mxGeometry relative="1" as="geometry">
            <Array as="points">
              <mxPoint x="100" y="310" />
            </Array>
          </mxGeometry>
        </mxCell>
        <mxCell id="5soLwOJ7RaT2KzwnRz-q-34" value="2" style="edgeLabel;html=1;align=center;verticalAlign=middle;resizable=0;points=[];" vertex="1" connectable="0" parent="5soLwOJ7RaT2KzwnRz-q-23">
          <mxGeometry x="0.5172" y="-2" relative="1" as="geometry">
            <mxPoint as="offset" />
          </mxGeometry>
        </mxCell>
        <mxCell id="5soLwOJ7RaT2KzwnRz-q-24" style="edgeStyle=orthogonalEdgeStyle;rounded=0;orthogonalLoop=1;jettySize=auto;html=1;entryX=0.5;entryY=0;entryDx=0;entryDy=0;" edge="1" parent="1" source="5soLwOJ7RaT2KzwnRz-q-2" target="5soLwOJ7RaT2KzwnRz-q-10">
          <mxGeometry relative="1" as="geometry">
            <Array as="points">
              <mxPoint x="180" y="280" />
            </Array>
          </mxGeometry>
        </mxCell>
        <mxCell id="5soLwOJ7RaT2KzwnRz-q-35" value="3" style="edgeLabel;html=1;align=center;verticalAlign=middle;resizable=0;points=[];" vertex="1" connectable="0" parent="5soLwOJ7RaT2KzwnRz-q-24">
          <mxGeometry x="0.4754" y="2" relative="1" as="geometry">
            <mxPoint as="offset" />
          </mxGeometry>
        </mxCell>
        <mxCell id="5soLwOJ7RaT2KzwnRz-q-2" value="N" style="shape=hexagon;perimeter=hexagonPerimeter2;whiteSpace=wrap;html=1;fixedSize=1;" vertex="1" parent="1">
          <mxGeometry x="350" y="230" width="120" height="80" as="geometry" />
        </mxCell>
        <mxCell id="5soLwOJ7RaT2KzwnRz-q-5" value="" style="edgeStyle=orthogonalEdgeStyle;rounded=0;orthogonalLoop=1;jettySize=auto;html=1;" edge="1" parent="1" source="5soLwOJ7RaT2KzwnRz-q-3" target="5soLwOJ7RaT2KzwnRz-q-2">
          <mxGeometry relative="1" as="geometry" />
        </mxCell>
        <mxCell id="5soLwOJ7RaT2KzwnRz-q-3" value="Ler N" style="shape=parallelogram;perimeter=parallelogramPerimeter;whiteSpace=wrap;html=1;fixedSize=1;" vertex="1" parent="1">
          <mxGeometry x="350" y="130" width="120" height="60" as="geometry" />
        </mxCell>
        <mxCell id="5soLwOJ7RaT2KzwnRz-q-44" style="edgeStyle=orthogonalEdgeStyle;rounded=0;orthogonalLoop=1;jettySize=auto;html=1;entryX=0;entryY=0.5;entryDx=0;entryDy=0;" edge="1" parent="1" source="5soLwOJ7RaT2KzwnRz-q-8" target="5soLwOJ7RaT2KzwnRz-q-1">
          <mxGeometry relative="1" as="geometry">
            <Array as="points">
              <mxPoint x="10" y="670" />
              <mxPoint x="354" y="670" />
            </Array>
          </mxGeometry>
        </mxCell>
        <mxCell id="5soLwOJ7RaT2KzwnRz-q-8" value="Escrever&quot;Daltónico&quot;" style="shape=parallelogram;perimeter=parallelogramPerimeter;whiteSpace=wrap;html=1;fixedSize=1;" vertex="1" parent="1">
          <mxGeometry y="230" width="120" height="60" as="geometry" />
        </mxCell>
        <mxCell id="5soLwOJ7RaT2KzwnRz-q-45" style="edgeStyle=orthogonalEdgeStyle;rounded=0;orthogonalLoop=1;jettySize=auto;html=1;entryX=0;entryY=0.5;entryDx=0;entryDy=0;" edge="1" parent="1" source="5soLwOJ7RaT2KzwnRz-q-9" target="5soLwOJ7RaT2KzwnRz-q-1">
          <mxGeometry relative="1" as="geometry">
            <Array as="points">
              <mxPoint x="60" y="670" />
              <mxPoint x="354" y="670" />
            </Array>
          </mxGeometry>
        </mxCell>
        <mxCell id="5soLwOJ7RaT2KzwnRz-q-9" value="Escrever&quot;Suricata&quot;" style="shape=parallelogram;perimeter=parallelogramPerimeter;whiteSpace=wrap;html=1;fixedSize=1;" vertex="1" parent="1">
          <mxGeometry x="10" y="330" width="120" height="60" as="geometry" />
        </mxCell>
        <mxCell id="5soLwOJ7RaT2KzwnRz-q-46" style="edgeStyle=orthogonalEdgeStyle;rounded=0;orthogonalLoop=1;jettySize=auto;html=1;entryX=0;entryY=0.5;entryDx=0;entryDy=0;" edge="1" parent="1" source="5soLwOJ7RaT2KzwnRz-q-10" target="5soLwOJ7RaT2KzwnRz-q-1">
          <mxGeometry relative="1" as="geometry">
            <Array as="points">
              <mxPoint x="180" y="670" />
              <mxPoint x="354" y="670" />
            </Array>
          </mxGeometry>
        </mxCell>
        <mxCell id="5soLwOJ7RaT2KzwnRz-q-10" value="Escrever&quot;Inteligente&quot;" style="shape=parallelogram;perimeter=parallelogramPerimeter;whiteSpace=wrap;html=1;fixedSize=1;" vertex="1" parent="1">
          <mxGeometry x="120" y="410" width="120" height="60" as="geometry" />
        </mxCell>
        <mxCell id="5soLwOJ7RaT2KzwnRz-q-47" style="edgeStyle=orthogonalEdgeStyle;rounded=0;orthogonalLoop=1;jettySize=auto;html=1;entryX=0.5;entryY=0;entryDx=0;entryDy=0;" edge="1" parent="1" source="5soLwOJ7RaT2KzwnRz-q-11" target="5soLwOJ7RaT2KzwnRz-q-1">
          <mxGeometry relative="1" as="geometry" />
        </mxCell>
        <mxCell id="5soLwOJ7RaT2KzwnRz-q-11" value="Escrever&quot;Azarado&quot;" style="shape=parallelogram;perimeter=parallelogramPerimeter;whiteSpace=wrap;html=1;fixedSize=1;" vertex="1" parent="1">
          <mxGeometry x="280" y="410" width="120" height="60" as="geometry" />
        </mxCell>
        <mxCell id="5soLwOJ7RaT2KzwnRz-q-48" style="edgeStyle=orthogonalEdgeStyle;rounded=0;orthogonalLoop=1;jettySize=auto;html=1;entryX=0.5;entryY=0;entryDx=0;entryDy=0;" edge="1" parent="1" source="5soLwOJ7RaT2KzwnRz-q-12" target="5soLwOJ7RaT2KzwnRz-q-1">
          <mxGeometry relative="1" as="geometry" />
        </mxCell>
        <mxCell id="5soLwOJ7RaT2KzwnRz-q-12" value="Escrever&quot;Janota&quot;" style="shape=parallelogram;perimeter=parallelogramPerimeter;whiteSpace=wrap;html=1;fixedSize=1;" vertex="1" parent="1">
          <mxGeometry x="440" y="410" width="120" height="60" as="geometry" />
        </mxCell>
        <mxCell id="5soLwOJ7RaT2KzwnRz-q-49" style="edgeStyle=orthogonalEdgeStyle;rounded=0;orthogonalLoop=1;jettySize=auto;html=1;entryX=1;entryY=0.5;entryDx=0;entryDy=0;" edge="1" parent="1" source="5soLwOJ7RaT2KzwnRz-q-13" target="5soLwOJ7RaT2KzwnRz-q-1">
          <mxGeometry relative="1" as="geometry">
            <Array as="points">
              <mxPoint x="660" y="660" />
            </Array>
          </mxGeometry>
        </mxCell>
        <mxCell id="5soLwOJ7RaT2KzwnRz-q-13" value="Escrever&quot;Cego&quot;" style="shape=parallelogram;perimeter=parallelogramPerimeter;whiteSpace=wrap;html=1;fixedSize=1;" vertex="1" parent="1">
          <mxGeometry x="600" y="410" width="120" height="60" as="geometry" />
        </mxCell>
        <mxCell id="5soLwOJ7RaT2KzwnRz-q-50" style="edgeStyle=orthogonalEdgeStyle;rounded=0;orthogonalLoop=1;jettySize=auto;html=1;entryX=1;entryY=0.5;entryDx=0;entryDy=0;" edge="1" parent="1" source="5soLwOJ7RaT2KzwnRz-q-14" target="5soLwOJ7RaT2KzwnRz-q-1">
          <mxGeometry relative="1" as="geometry">
            <Array as="points">
              <mxPoint x="767" y="660" />
            </Array>
          </mxGeometry>
        </mxCell>
        <mxCell id="5soLwOJ7RaT2KzwnRz-q-14" value="Escrever&quot;Lunático&quot;" style="shape=parallelogram;perimeter=parallelogramPerimeter;whiteSpace=wrap;html=1;fixedSize=1;" vertex="1" parent="1">
          <mxGeometry x="707" y="320" width="120" height="60" as="geometry" />
        </mxCell>
        <mxCell id="5soLwOJ7RaT2KzwnRz-q-51" style="edgeStyle=orthogonalEdgeStyle;rounded=0;orthogonalLoop=1;jettySize=auto;html=1;entryX=1;entryY=0.5;entryDx=0;entryDy=0;" edge="1" parent="1" source="5soLwOJ7RaT2KzwnRz-q-16" target="5soLwOJ7RaT2KzwnRz-q-1">
          <mxGeometry relative="1" as="geometry">
            <Array as="points">
              <mxPoint x="810" y="270" />
              <mxPoint x="810" y="660" />
            </Array>
          </mxGeometry>
        </mxCell>
        <mxCell id="5soLwOJ7RaT2KzwnRz-q-16" value="Escrever&quot;Piriquito&quot;" style="shape=parallelogram;perimeter=parallelogramPerimeter;whiteSpace=wrap;html=1;fixedSize=1;" vertex="1" parent="1">
          <mxGeometry x="650" y="240" width="120" height="60" as="geometry" />
        </mxCell>
        <mxCell id="5soLwOJ7RaT2KzwnRz-q-20" style="edgeStyle=orthogonalEdgeStyle;rounded=0;orthogonalLoop=1;jettySize=auto;html=1;entryX=0.583;entryY=-0.067;entryDx=0;entryDy=0;entryPerimeter=0;" edge="1" parent="1" source="5soLwOJ7RaT2KzwnRz-q-2" target="5soLwOJ7RaT2KzwnRz-q-12">
          <mxGeometry relative="1" as="geometry" />
        </mxCell>
        <mxCell id="5soLwOJ7RaT2KzwnRz-q-37" value="5" style="edgeLabel;html=1;align=center;verticalAlign=middle;resizable=0;points=[];" vertex="1" connectable="0" parent="5soLwOJ7RaT2KzwnRz-q-20">
          <mxGeometry x="-0.1938" y="1" relative="1" as="geometry">
            <mxPoint as="offset" />
          </mxGeometry>
        </mxCell>
        <mxCell id="5soLwOJ7RaT2KzwnRz-q-53" value="" style="edgeStyle=orthogonalEdgeStyle;rounded=0;orthogonalLoop=1;jettySize=auto;html=1;" edge="1" parent="1" source="5soLwOJ7RaT2KzwnRz-q-52" target="5soLwOJ7RaT2KzwnRz-q-3">
          <mxGeometry relative="1" as="geometry" />
        </mxCell>
        <mxCell id="5soLwOJ7RaT2KzwnRz-q-52" value="Escrever &quot;Quantos queres&quot;" style="shape=parallelogram;perimeter=parallelogramPerimeter;whiteSpace=wrap;html=1;fixedSize=1;" vertex="1" parent="1">
          <mxGeometry x="350" y="20" width="120" height="60" as="geometry" />
        </mxCell>
      </root>
    </mxGraphModel>
  </diagram>
</mxfile>
